<?xml version="1.0" encoding="utf-8"?>
<!-- Generator: Adobe Illustrator 21.1.0, SVG Export Plug-In . SVG Version: 6.00 Build 0)  -->
<svg version="1.1" id="Ebene_1" xmlns="http://www.w3.org/2000/svg" xmlns:xlink="http://www.w3.org/1999/xlink" x="0px" y="0px"
	 viewBox="0 0 822 226.8" style="enable-background:new 0 0 822 226.8;" xml:space="preserve">
<style type="text/css">
	.st0{fill:#FFFFFF;}
</style>
<g>
	<line class="st0" x1="12.4" y1="158.4" x2="805.6" y2="158.4"/>
	<rect x="12.4" y="155.6" class="st0" width="793.3" height="5.4"/>
</g>
<polygon class="st0" points="32.9,74.3 99.5,74.3 99.5,54.8 32.9,54.8 32.9,23.2 101.2,23.2 101.2,3.5 12.4,3.5 12.4,129.3
	101.9,129.3 101.9,110 32.9,110 "/>
<polygon class="st0" points="191.7,100.1 151.8,3.5 125,3.5 125,129.3 144.9,129.3 144.9,38.1 182.9,129.3 199.9,129.3 237.9,37.9
	237.9,129.3 258.1,129.3 258.1,3.5 231.7,3.5 "/>
<path class="st0" d="M305.7,22.2h37.4c18,0,26.2,5.3,26.2,22.4c0,16.8-8.5,23.1-25.8,23.1h-18.7l3,18.7h14.9
	c35.3,0,47.2-16.8,47.2-42.8c0-25.8-12.4-40.1-46.4-40.1h-57.7v125.9h20V22.2z"/>
<path class="st0" d="M466.7,1.4c-40.2,0-64.9,18.7-64.9,64.9c0,46.4,24.6,65.1,64.9,65.1c40.3,0,65.1-18.7,65.1-65.1
	C531.8,20.1,507,1.4,466.7,1.4z M466.7,112.2c-31.4,0-44.2-16.6-44.2-45.5c0-28.7,12.7-45.3,44.2-45.3c31.6,0,44.3,16.6,44.3,45.3
	C511.1,95.5,498.3,112.2,466.7,112.2z"/>
<polygon class="st0" points="572.7,3.5 552.2,3.5 552.2,129.3 637.1,129.3 637.1,110.5 572.7,110.5 "/>
<rect x="655.9" y="3.5" class="st0" width="20.4" height="125.9"/>
<path class="st0" d="M757.2,55.6c-21.2-3.4-33-5.8-33-18.5c0-11.7,7.3-16.6,28.4-16.6c13.9,0,28,4.1,36.5,9.7l11-16.8
	c-9.9-6.6-24.8-11.9-47.4-11.9c-32.8,0-48.9,9.9-48.9,36.2c0,26.5,17.8,31.8,48.2,36.5c20.9,3.2,33.6,5.8,33.6,19.4
	c0,13.6-8,19.5-33.3,19.5c-15.6,0-30.9-3.9-45-13.2L697,115.6c15.1,10.5,34,15.5,55.9,15.5c38.2,0,53.2-13.3,53.2-38.6
	C806.1,64.8,786,60.2,757.2,55.6z"/>
<g>
	<path class="st0" d="M12.4,187.4h6.2v38h-6.2V187.4z"/>
	<path class="st0" d="M27.3,187.4H34l20,27.4v-27.4h6v38h-5.7l-21-28.8v28.8h-6V187.4z"/>
	<path class="st0" d="M68.4,187.4h26.1v6H74.6v10.2H94v5.9H74.6v16h-6.2V187.4z"/>
	<path class="st0" d="M97.9,206.4c0-14,7.4-19.6,19.6-19.6c12.2,0,19.6,5.6,19.6,19.6c0,14-7.5,19.6-19.6,19.6
		C105.3,226,97.9,220.4,97.9,206.4z M130.9,206.5c0-8.7-3.8-13.7-13.4-13.7c-9.5,0-13.3,5-13.3,13.7c0,8.7,3.8,13.7,13.3,13.7
		C127,220.2,130.9,215.2,130.9,206.5z"/>
	<path class="st0" d="M159.3,211.6h-10v13.9h-6v-38h17.4c10.4,0,13.8,4.5,13.8,11.9c0,5.8-2.3,10.3-8.8,11.8l8.3,14.4h-6.7
		L159.3,211.6z M160.5,205.9c5,0,7.7-1.4,7.7-6.4c0-5.1-2.6-6.5-7.8-6.5h-11.1v12.8H160.5z"/>
	<path class="st0" d="M181.5,187.4h8.1l12.1,29.2l12.1-29.2h8v38h-6.1v-27.6l-11.5,27.6H199l-11.5-27.5v27.5h-6V187.4z"/>
	<path class="st0" d="M242.1,187.2h6.4l15.3,38.3h-6.4l-2.8-7.3h-18.6l-2.8,7.3h-6.2L242.1,187.2z M252.3,212.4l-7.1-17.8l-7.1,17.8
		H252.3z"/>
	<path class="st0" d="M274.2,193.4h-13.7v-6h33.7v6h-13.7v32.1h-6.3V193.4z"/>
	<path class="st0" d="M299.8,187.4h6.2v38h-6.2V187.4z"/>
	<path class="st0" d="M312.6,206.4c0-14,7.4-19.6,19.6-19.6c12.2,0,19.6,5.6,19.6,19.6c0,14-7.5,19.6-19.6,19.6
		C320,226,312.6,220.4,312.6,206.4z M345.6,206.5c0-8.7-3.8-13.7-13.4-13.7c-9.5,0-13.3,5-13.3,13.7c0,8.7,3.9,13.7,13.3,13.7
		C341.7,220.2,345.6,215.2,345.6,206.5z"/>
	<path class="st0" d="M358,187.4h6.7l20,27.4v-27.4h6.1v38h-5.7l-21-28.8v28.8H358V187.4z"/>
	<path class="st0" d="M410.7,187.4h8.1l12,29.2l12.1-29.2h8v38h-6.1v-27.6l-11.5,27.6h-5.1l-11.5-27.5v27.5h-6V187.4z"/>
	<path class="st0" d="M471.3,187.2h6.4l15.3,38.3h-6.4l-2.8-7.3h-18.6l-2.8,7.3H456L471.3,187.2z M481.5,212.4l-7.1-17.8l-7.1,17.8
		H481.5z"/>
	<path class="st0" d="M498.1,187.4h6.7l20,27.4v-27.4h6.1v38h-5.7l-21-28.8v28.8h-6.1V187.4z"/>
	<path class="st0" d="M551.2,187.2h6.4l15.3,38.3h-6.4l-2.8-7.3H545l-2.8,7.3H536L551.2,187.2z M561.4,212.4l-7.1-17.8l-7.1,17.8
		H561.4z"/>
	<path class="st0" d="M574.3,206.4c0-13.7,7-19.6,19.4-19.6c7.5,0,11.9,2.3,14.6,5.1l-4.5,4.6c-2.2-2-4.9-3.6-10.2-3.6
		c-9.1,0-13.2,4.5-13.2,13.6c0,9.4,3.2,14,13.1,14c8.8,0,11-3.3,11-10v-1h-11.7v-5.6h17.9v5.4c0,10.6-3.5,16.7-17.4,16.7
		C579,226,574.3,219.2,574.3,206.4z"/>
	<path class="st0" d="M616.9,187.4h26.8v6h-20.6v9.5h20.1v5.9h-20.1v10.8H644v5.8h-27V187.4z"/>
	<path class="st0" d="M650.9,187.4h8.1l12.1,29.2l12.1-29.2h8v38h-6.1v-27.6l-11.5,27.6h-5.1l-11.5-27.5v27.5h-6V187.4z"/>
	<path class="st0" d="M699.5,187.4h26.8v6h-20.6v9.5h20.1v5.9h-20.1v10.8h20.8v5.8h-27V187.4z"/>
	<path class="st0" d="M733.5,187.4h6.7l20,27.4v-27.4h6.1v38h-5.7l-21-28.8v28.8h-6V187.4z"/>
	<path class="st0" d="M785.2,193.4h-13.7v-6h33.7v6h-13.7v32.1h-6.3V193.4z"/>
</g>
</svg>
